# xmcd
#
# Track frame offsets: 
#        150
#        18851
#        33687
#        44217
#        59050
#        74915
#        89299
#        104386
#        120778
#        135098
#
# Disc length: 1998 seconds
#
# Revision: 0
# Processed by: cddbd v1.5.2PL0 Copyright (c) Steve Scherf et al.
# Submitted via: ExactAudioCopy v0.99pb4
#
DISCID=8c07cc0a
DTITLE=Various Artist - The Class of Country
DYEAR=1990
DGENRE=Country
TTITLE0=Desert Rose Band - I Still Believe In You
TTITLE1=Kathy Mattea - Life As We Knew It
TTITLE2=Ronnie McDowell with Conway Twitty - It's Only Make Believe
TTITLE3=The Forester Sisters - (I'd Choose) You Again
TTITLE4=Mickey Gilley - She Reminded Me Of You
TTITLE5=Skip Ewing - Burnin' a Hole In My Heart
TTITLE6=Don Williams - I Wouldn't Be a Man
TTITLE7=Tanya tucker - I Won't Take Less Than Your Love
TTITLE8=Charley Pride - Shouldn't It Be Easier Than This
TTITLE9=Larry Boone - Don't Give Candy to a Stranger
EXTD=
EXTT0=
EXTT1=
EXTT2=
EXTT3=
EXTT4=
EXTT5=
EXTT6=
EXTT7=
EXTT8=
EXTT9=
PLAYORDER=
